<?xml version="1.0" encoding="UTF-8"?>
<svg id="Layer_1" xmlns="http://www.w3.org/2000/svg" version="1.1" viewBox="0 0 864 864">
  <!-- Generator: Adobe Illustrator 30.3.0, SVG Export Plug-In . SVG Version: 2.1.3 Build 182)  -->
  <g id="face-front">
    <polygon points="314.23 752.12 309.06 333.3 574.98 175.19 576.71 582.35 314.23 752.12" fill="#00aeef" isolation="isolate" opacity=".2"/>
  </g>
  <rect x="216.27" y="769.24" width="106.45" height="7.2" rx="3.6" ry="3.6" transform="translate(889.31 1307.39) rotate(150)" fill="#231f20"/>
  <rect x="570.22" y="548.05" width="106.45" height="7.84" rx="3.6" ry="3.6" transform="translate(1439.35 718.27) rotate(150)" fill="#231f20"/>
  <rect x="305.46" y="333.3" width="7.2" height="418.82" rx="3.6" ry="3.6" fill="#231f20"/>
  <rect x="222.92" y="268.19" width="7.2" height="533.96" rx="3.6" ry="3.6" fill="#231f20"/>
  <rect x="573.11" y="175.19" width="7.2" height="408.4" rx="3.6" ry="3.6" fill="#231f20"/>
  <rect x="664.67" y="17.28" width="7.2" height="513.27" rx="3.6" ry="3.6" fill="#231f20"/>
  <rect x="443.66" y="-7.99" width="8.09" height="515.48" rx="3.54" ry="3.54" transform="translate(440.15 -262.85) rotate(60)" fill="#231f20"/>
  <rect x="441.84" y="-110.57" width="6.75" height="518.15" rx="3.38" ry="3.38" transform="translate(351.22 -311.32) rotate(60)" fill="#231f20"/>
</svg>