<?xml version="1.0" encoding="UTF-8"?>
<svg id="Layer_2" xmlns="http://www.w3.org/2000/svg" version="1.1" viewBox="0 0 1247.89 1614.92">
  <!-- Generator: Adobe Illustrator 30.3.0, SVG Export Plug-In . SVG Version: 2.1.3 Build 182)  -->
  <g id="doubleCube.lower.right">
    <polygon points="874.75 1009.17 757.57 943.28 757.73 809 874.75 876.69 874.75 1009.17" fill="#00aeef" opacity=".2"/>
  </g>
  <rect x="220.98" y="796.3" width="10.37" height="461.52" rx="3.6" ry="3.6" fill="#231f20"/>
  <rect x="819.07" y="907.51" width="10.37" height="461.52" rx="3.6" ry="3.6" transform="translate(-573.64 1282.96) rotate(-60)" fill="#231f20"/>
  <rect x="619.31" y="1023.54" width="10.37" height="461.52" rx="3.6" ry="3.6" fill="#231f20"/>
  <rect x="1014.43" y="791.11" width="10.37" height="461.52" rx="3.6" ry="3.6" fill="#231f20"/>
  <rect x="619.85" y="560.35" width="10.37" height="461.52" rx="3.6" ry="3.6" fill="#231f20"/>
  <rect x="420.71" y="447.84" width="10.37" height="461.52" rx="3.6" ry="3.6" transform="translate(800.63 -29.54) rotate(60)" fill="#231f20"/>
  <rect x="420.27" y="1137.04" width="10.37" height="461.52" rx="3.6" ry="3.6" transform="translate(-971.83 1052.36) rotate(-60)" fill="#231f20"/>
  <rect x="420.27" y="903.9" width="10.37" height="461.52" rx="3.6" ry="3.6" transform="translate(1195.37 198.88) rotate(60)" fill="#231f20"/>
  <rect x="820.16" y="1137.04" width="10.37" height="461.52" rx="3.6" ry="3.6" transform="translate(1597.23 -30.87) rotate(60)" fill="#231f20"/>
  <g id="doubleCube.lower.left">
    <polygon points="468.79 1231.03 349.38 1163.89 349.55 1027.06 468.79 1096.03 468.79 1231.03" fill="#00aeef" opacity=".2"/>
  </g>
  <rect x="818.62" y="447.84" width="10.37" height="461.52" rx="3.6" ry="3.6" transform="translate(1823.4 304.47) rotate(120)" fill="#231f20"/>
  <rect x="820.16" y="673.02" width="10.37" height="461.52" rx="3.6" ry="3.6" transform="translate(1195.37 -262.88) rotate(60)" fill="#231f20"/>
  <rect x="420.27" y="678.32" width="10.37" height="461.52" rx="3.6" ry="3.6" transform="translate(-574.56 823) rotate(-60)" fill="#231f20"/>
  <g id="doubleCube.lower.top">
    <polygon points="744.88 795.21 625.07 865.28 505.2 797 625.2 727.87 744.88 795.21" fill="#00aeef" opacity=".2"/>
  </g>
  <g id="doubleCube.lower.front">
    <polygon points="886.3 1158.74 764.39 1228.2 765.66 1086.74 886.3 1016.68 886.3 1158.74" fill="#00aeef" opacity=".2"/>
  </g>
  <g id="doubleCube.lower.back">
    <polygon points="383.18 1006.57 384.5 877.96 496.26 811.6 496.64 941.06 383.18 1006.57" fill="#00aeef" opacity=".2"/>
  </g>
  <g id="doubleCube.upper.right">
    <polygon points="875.19 547.93 758.01 482.04 758.17 347.75 875.19 415.44 875.19 547.93" fill="#00aeef" opacity=".2"/>
  </g>
  <rect x="221.42" y="335.05" width="10.37" height="461.52" rx="3.6" ry="3.6" fill="#231f20"/>
  <rect x="819.51" y="446.26" width="10.37" height="461.52" rx="3.6" ry="3.6" transform="translate(-173.97 1052.72) rotate(-60)" fill="#231f20"/>
  <rect x="619.75" y="562.3" width="10.37" height="461.52" rx="3.6" ry="3.6" fill="#231f20"/>
  <rect x="1014.87" y="329.87" width="10.37" height="461.52" rx="3.6" ry="3.6" fill="#231f20"/>
  <rect x="620.29" y="99.11" width="10.37" height="461.52" rx="3.6" ry="3.6" fill="#231f20"/>
  <rect x="421.15" y="-13.4" width="10.37" height="461.52" rx="3.6" ry="3.6" transform="translate(401.4 -260.54) rotate(60)" fill="#231f20"/>
  <rect x="420.71" y="675.8" width="10.37" height="461.52" rx="3.6" ry="3.6" transform="translate(-572.16 822.12) rotate(-60)" fill="#231f20"/>
  <rect x="420.71" y="442.65" width="10.37" height="461.52" rx="3.6" ry="3.6" transform="translate(796.14 -32.13) rotate(60)" fill="#231f20"/>
  <rect x="820.6" y="675.8" width="10.37" height="461.52" rx="3.6" ry="3.6" transform="translate(1198 -261.87) rotate(60)" fill="#231f20"/>
  <g id="doubleCube.upper.left">
    <polygon points="469.23 769.79 349.82 702.65 349.99 565.81 469.23 634.79 469.23 769.79" fill="#00aeef" opacity=".2"/>
  </g>
  <rect x="819.06" y="-13.4" width="10.37" height="461.52" rx="3.6" ry="3.6" transform="translate(1424.61 -387.78) rotate(120)" fill="#231f20"/>
  <rect x="820.6" y="211.78" width="10.37" height="461.52" rx="3.6" ry="3.6" transform="translate(796.14 -493.88) rotate(60)" fill="#231f20"/>
  <rect x="420.71" y="217.08" width="10.37" height="461.52" rx="3.6" ry="3.6" transform="translate(-174.89 592.76) rotate(-60)" fill="#231f20"/>
  <g id="doubleCube.upper.top">
    <polygon points="745.32 333.97 625.51 404.04 505.64 335.75 625.64 266.62 745.32 333.97" fill="#00aeef" opacity=".2"/>
  </g>
  <g id="doubleCube.upper.front">
    <polygon points="886.74 697.5 764.83 766.96 766.1 625.5 886.74 555.44 886.74 697.5" fill="#00aeef" opacity=".2"/>
  </g>
  <g id="doubleCube.upper.back">
    <polygon points="383.62 545.33 384.94 416.72 496.7 350.35 497.08 479.82 383.62 545.33" fill="#00aeef" opacity=".2"/>
  </g>
</svg>