<?xml version="1.0" encoding="UTF-8"?>
<svg id="Layer_1" xmlns="http://www.w3.org/2000/svg" version="1.1" viewBox="0 0 864 864">
  <!-- Generator: Adobe Illustrator 30.3.0, SVG Export Plug-In . SVG Version: 2.1.3 Build 182)  -->
  <g id="pipeLadder.upper">
    <polygon points="550.84 360.23 293.35 504.77 293.23 194.55 549.15 45.93 550.84 360.23" fill="#00aeef" opacity=".2"/>
  </g>
  <g id="pipeLadder.lower">
    <polygon points="553.85 589.74 293.35 739.88 293.25 516.07 553.23 364.37 553.85 589.74" fill="#00aeef" opacity=".2"/>
  </g>
  <rect x="169.21" y="756.25" width="260.14" height="11.39" rx="3.58" ry="3.58" transform="translate(421.07 -47.56) rotate(30)" fill="#231f20"/>
  <rect x="5.23" y="465.05" width="571.95" height="16.14" rx="3.58" ry="3.58" transform="translate(764.33 181.91) rotate(90)" fill="#231f20"/>
  <rect x="423.28" y="599.76" width="282.43" height="11.39" rx="3.58" ry="3.58" transform="translate(378.35 -201.13) rotate(30)" fill="#231f20"/>
  <rect x="274.64" y="309.8" width="564.59" height="15.57" rx="3.58" ry="3.58" transform="translate(874.52 -239.35) rotate(90)" fill="#231f20"/>
  <rect x="172.99" y="661.39" width="353.46" height="10.66" rx="3.36" ry="3.36" transform="translate(847.1 101.53) rotate(69.03)" fill="#231f20"/>
  <rect x="233.31" y="497.03" width="13.78" height="217.66" transform="translate(292.84 -43.75) rotate(26.26)" fill="#231f20"/>
  <rect x="496.62" y="329.6" width="12.91" height="224.2" transform="translate(288.25 -192.36) rotate(30)" fill="#231f20"/>
  <rect x="444.8" y="510.74" width="353.46" height="10.66" rx="3.36" ry="3.36" transform="translate(880.95 -248.99) rotate(69.03)" fill="#231f20"/>
  <rect x="419.11" y="515.6" width="16.23" height="313.23" rx="3.6" ry="3.6" transform="translate(795.76 -33.89) rotate(60)" fill="#231f20"/>
  <rect x="408.29" y="283.99" width="16.23" height="313.23" rx="3.6" ry="3.6" transform="translate(589.78 -140.31) rotate(60)" fill="#231f20"/>
  <rect x="419.11" y="-38.08" width="16.23" height="313.23" rx="3.6" ry="3.6" transform="translate(316.26 -310.72) rotate(60)" fill="#231f20"/>
</svg>